# xmcd CD database file
#
# Track frame offsets:
#        150
#        16611
#        34456
#        56583
#        73741
#        93465
#        109336
#        124086
#        141997
#        157043
#
# Disc length: 2272 seconds
#
# Revision: 0
# Processed by: cddbd v1.5.2PL0 Copyright (c) Steve Scherf et al.
# Submitted via: CUERipper 2.1.5
#
DISCID=8e08de0a
DTITLE=Rich Harper - Ellwood and me
DYEAR=2015
DGENRE=Blues
TTITLE0=When Dad Paid All The Bills
TTITLE1=You're The Love For Me
TTITLE2=Live To Love Another Day
TTITLE3=Don't Want To Go
TTITLE4=Devil Done Told Me
TTITLE5=Why (Ally)
TTITLE6=Blue Eyed Blues (Redux)
TTITLE7=Never Again
TTITLE8=What's Going On
TTITLE9=Thank You Lord
EXTD=
EXTT0=
EXTT1=
EXTT2=
EXTT3=
EXTT4=
EXTT5=
EXTT6=
EXTT7=
EXTT8=
EXTT9=
PLAYORDER=
